<?xml version="1.0" standalone="no"?>
<!DOCTYPE svg PUBLIC "-//W3C//DTD SVG 20010904//EN"
 "http://www.w3.org/TR/2001/REC-SVG-20010904/DTD/svg10.dtd">
<svg version="1.0" xmlns="http://www.w3.org/2000/svg"
 width="700.000000pt" height="700.000000pt" viewBox="0 0 700.000000 700.000000"
 preserveAspectRatio="xMidYMid meet">
<metadata>
Created by potrace 1.14, written by Peter Selinger 2001-2017
</metadata>
<g transform="translate(0.000000,700.000000) scale(0.100000,-0.100000)"
fill="#000000" stroke="none">
<path d="M2707 6524 c-1 -1 -27 -4 -57 -7 -82 -9 -99 -14 -169 -49 -74 -38
-156 -116 -194 -186 -44 -81 -58 -153 -58 -305 -1 -154 8 -182 71 -224 46 -32
127 -32 174 -1 59 39 68 65 71 209 3 151 17 190 81 223 38 20 51 21 874 21
824 0 836 -1 875 -21 64 -34 77 -68 80 -220 2 -103 6 -138 19 -160 29 -48 65
-68 131 -72 50 -3 66 0 94 20 64 43 73 71 73 227 -1 153 -14 221 -63 306 -70
125 -197 211 -337 231 -37 5 -1659 13 -1665 8z"/>
<path d="M355 5394 c-172 -47 -301 -178 -340 -348 -14 -60 -16 -146 -13 -655
4 -644 0 -596 65 -716 59 -106 187 -199 313 -226 60 -12 80 -17 159 -35 36 -9
76 -18 87 -20 12 -2 81 -18 154 -34 73 -16 142 -32 154 -34 11 -3 266 -59 566
-126 300 -67 554 -124 564 -126 11 -2 49 -10 85 -19 157 -36 428 -96 456 -101
17 -3 81 -17 144 -32 l114 -28 1 -279 c1 -271 2 -281 23 -316 21 -32 54 -56
93 -66 8 -2 245 -4 525 -4 573 -1 560 -3 611 75 17 28 19 51 19 308 1 152 3
279 6 281 3 4 184 46 264 62 11 2 139 31 285 64 146 33 277 62 290 65 23 4
369 81 415 92 11 3 31 7 44 10 13 3 146 32 295 65 149 34 279 62 289 64 10 2
109 25 220 50 111 25 213 47 226 50 75 14 173 39 222 57 141 49 260 184 295
334 21 91 20 1163 -1 1243 -45 173 -169 299 -334 343 -62 16 -264 17 -3156 16
-2575 0 -3098 -2 -3140 -14z m6231 -314 c36 -14 70 -49 84 -86 17 -41 16
-1089 0 -1138 -11 -35 -69 -95 -93 -97 -16 -1 -35 -5 -82 -17 -22 -6 -51 -13
-65 -16 -74 -14 -225 -48 -230 -51 -4 -2 -21 -7 -39 -10 -18 -3 -70 -14 -114
-24 -45 -11 -95 -22 -112 -25 -16 -3 -160 -35 -320 -71 -159 -36 -299 -68
-310 -70 -11 -3 -121 -27 -245 -55 -124 -28 -317 -71 -430 -95 -113 -25 -216
-48 -230 -52 -41 -10 -42 -10 -120 -28 -41 -9 -90 -18 -109 -18 l-35 -2 -1 88
c-2 94 -12 119 -69 161 -27 21 -40 21 -553 24 -509 2 -527 2 -567 -18 -59 -28
-78 -66 -81 -164 -2 -44 -4 -86 -4 -93 -1 -8 -10 -9 -35 -2 -29 8 -620 141
-681 153 -49 10 -524 118 -555 126 -19 5 -51 12 -70 15 -19 3 -60 12 -90 20
-30 8 -66 16 -80 18 -14 3 -65 14 -115 26 -49 11 -242 54 -429 96 -431 95
-409 89 -445 130 -17 20 -31 39 -32 43 0 4 -3 16 -5 27 -2 11 -5 261 -5 555
-1 454 1 541 14 571 14 33 51 68 87 82 29 11 6137 8 6166 -3z m-2769 -2217
l-2 -318 -315 1 -315 0 -1 317 -1 317 318 0 318 0 -2 -317z"/>
<path d="M230 3158 c-18 -13 -42 -39 -52 -60 -18 -35 -19 -77 -19 -1115 0
-593 3 -1089 6 -1103 14 -72 19 -89 41 -133 68 -141 196 -238 349 -263 52 -9
5814 -9 5882 0 203 25 362 184 398 398 3 20 6 519 6 1108 0 1009 -1 1074 -18
1108 -26 53 -63 75 -130 79 -70 5 -118 -17 -148 -68 -20 -33 -20 -54 -22
-1109 -1 -591 -4 -1083 -6 -1093 -5 -29 -56 -87 -85 -99 -34 -14 -5788 -19
-5842 -5 -48 12 -98 62 -107 106 -3 20 -7 515 -7 1101 l-1 1065 -23 36 c-12
20 -38 44 -56 53 -50 24 -126 21 -166 -6z"/>
</g>
</svg>
